<svg version="1.2" xmlns="http://www.w3.org/2000/svg" viewBox="0 0 531 200" width="531" height="200">
	<title>Новый проект</title>
	<style>
		.s0 { fill: #5756ce } 
		.s1 { fill: #29374a } 
		.s2 { fill: #002e8d } 
		.s3 { fill: #32a8ff } 
	</style>
	<g id="Layer">
		<g id="Layer">
			<g id="Layer">
				<g id="Layer">
					<path id="Layer" class="s0" d="m260.2 140.2c-4.2-4.2-11.3-4.5-15.6-0.2l-21.7 21.3c-1.5 1.4-1.5 3.3-1 4.5 0.5 1.1 1.9 2.3 3.8 2.6h38.1c2.8 0 5.4-2.4 5.4-5.2q0-0.3 0-0.5c0-8.5-3.3-16.6-9-22.5z"/>
				</g>
				<g id="Layer">
					<path id="Layer" class="s0" d="m230.7 135c0-6.1-5-11.1-10.9-11.1l-30.3-0.2c-2.1 0-3.3 1.1-3.8 2.3-0.4 1.2-0.7 3.1 0.7 4.5l27 27c1.9 2.1 5.4 2.1 7.6 0q0 0 0.2-0.3c5.9-5.6 9.5-13.9 9.5-22.2z"/>
				</g>
				<g id="Layer">
					<path id="Layer" class="s0" d="m213.4 110.6c4.5-4.2 4.5-11.3 0.2-15.6l-21.2-21.7c-1.5-1.5-3.1-1.5-4.5-1-1.2 0.5-2.4 1.9-2.4 3.8l-0.2 38.1c0 3.1 2.3 5.4 5.2 5.4q0.2 0 0.4 0c8.6 0 16.6-3.3 22.5-9z"/>
				</g>
				<g id="Layer">
					<path id="Layer" class="s0" d="m243 63.8c4.2 4.5 11.3 4.5 15.6 0.2l21.7-21.2c1.5-1.5 1.5-3.1 1-4.5-0.7-1.2-1.9-2.4-3.8-2.4l-38.1-0.2c-3 0-5.4 2.3-5.4 5.2q0 0.2 0 0.4c0 8.5 3.3 16.6 9 22.5z"/>
				</g>
				<g id="Layer">
					<path id="Layer" class="s0" d="m272.5 69c0 6.2 5 11.1 10.9 11.1l30.3 0.3c2.1 0 3.3-1.2 3.8-2.4 0.5-1.2 0.7-3.1-0.7-4.5l-27-27c-1.9-2.1-5.4-2.1-7.6-0.2q0 0.2-0.2 0.5c-5.9 5.9-9.2 13.9-9.5 22.2z"/>
				</g>
				<g id="Layer">
					<path id="Layer" class="s0" d="m289.8 93.6c-4.2 4.3-4.5 11.1-0.2 15.4l21.3 21.7c1.4 1.5 3.3 1.5 4.5 1 1.1-0.5 2.3-1.9 2.6-3.8v-38.1c0-2.8-2.4-5.4-5.2-5.4q-0.3 0-0.5 0c-8.5 0-16.6 3.3-22.5 9.2z"/>
				</g>
				<g id="Layer">
					<path id="Layer" class="s0" d="m284.6 122.9c-6.1 0-11.1 5-11.1 10.9l-0.2 30.3c0 2.1 1.1 3.3 2.3 3.8 1.2 0.5 3.1 0.7 4.5-0.7l27-27c2.1-1.9 2.1-5.4 0-7.6q0 0-0.3-0.2c-5.9-5.9-13.9-9.2-22.2-9.5z"/>
				</g>
			</g>
		</g>
		<path id="Layer" fill-rule="evenodd" class="s0" d="m231.9 62.9v5.6c0 4.8-4.1 8.8-8.8 8.8h-2.8c-0.7 0-1.2-0.5-1.2-1l-1.4-8.7q0-0.2 0.4-0.5c1-0.7 1.7-1.9 1.7-3.3 0-2.1-1.9-4-4-3.5-1.9 0-3.1 1.4-3.3 3-0.3 1.7 0.4 3.1 1.6 3.8q0.5 0.3 0.5 0.5l-1.4 8.7c0 0.5-0.5 1-1.2 1h-2.9c-4.7 0-8.7-4-8.7-8.8v-5.6c0-3.8 2.4-6.9 5.7-8.1v-2.6c0-5.4 4.5-10.2 10.1-9.9 5.7 0 10 4.7 10 10.1v2.4c3.3 1.2 5.7 4.3 5.7 8.1zm-7.8-10.5c0-4.2-3.6-8-7.9-8-4.2 0-7.8 3.6-7.8 7.8v1.9q0.3 0 0.7 0c0.3 0 14.7 0 15 0z"/>
	</g>
	<g id="Layer">
		<g id="Layer">
			<path id="Layer" fill-rule="evenodd" class="s1" d="m377.1 68.8c0 5.9-4.5 10.1-10.6 10.1-6 0-10.7-3.7-10.7-11.3v-3.8c0-7.1 3.6-12.5 9.9-13.7l9.7-1.2v3.8l-8.7 1.2c-4 0.7-6.4 3.3-6.6 8.5 1.6-3.1 4.5-3.8 7.1-3.8 5.9 0 9.9 4 9.9 10.2zm-4.3-0.1c0-3.5-2.8-6.3-6.2-6.3-3.5 0-6.3 2.8-6.3 6.3 0 3.4 2.8 6.2 6.3 6.2 3.4 0 6.2-2.8 6.2-6.2z"/>
			<path id="Layer" fill-rule="evenodd" class="s1" d="m384.2 70c0.5 3 3.1 5.2 6.4 5.2 2.3 0 4-1 5.2-2.4h4.2c-1.1 3.5-4.9 6.1-9.4 6.1-6.2 0-10.9-4.2-10.9-10.6 0-5.9 4.5-10.6 10.4-10.6 5.9 0 10.2 3.7 10.7 10.4q0 0.7 0 1.9zm11.5-3.6c0-2.8-2.3-5-5.6-5-3.3 0-5.7 2.2-5.9 5z"/>
			<path id="Layer" class="s1" d="m402.2 74.7c1.6 0 3.3-1 3.3-4.3v-12.3h16.1v20.6h-4.5v-16.6h-7.4v8.6c0 5.6-3.3 8.2-7.5 8z"/>
			<path id="Layer" class="s1" d="m433.9 67.6l9.7-9.5h-5.2l-5.5 5.2-3.1 3.1v-8.3h-4.2-0.2v20.6h0.2 4.2v-9.7l3.1 3.3 5.5 6.4h5.2z"/>
			<path id="Layer" fill-rule="evenodd" class="s1" d="m465.3 58.1v20.6h-4.5v-3.1c-1.6 2.2-4.7 3.3-7.5 3.3-3.1 0-5.5-0.9-7.4-2.8q0 0-0.2-0.2c-1.7-1.9-2.6-4.5-2.6-7.6 0-2.8 0.9-5.4 2.6-7.3q0 0 0-0.3 0.2 0 0.2-0.2c1.9-1.7 4.3-2.8 7.4-2.8 2.8 0 5.9 1.4 7.5 3.5l0.7-3.1zm-4.7 10.3c0-3.6-2.9-6.5-6.6-6.5-3.7 0-6.6 2.9-6.6 6.5 0 3.6 2.9 6.5 6.6 6.5 3.7 0 6.6-2.9 6.6-6.5z"/>
			<path id="Layer" fill-rule="evenodd" class="s1" d="m473.4 58.1l0.4 3.1c1.7-2.1 4.8-3.5 7.6-3.5q0 0 0.3 0c2.8 0 5.4 1.1 7 2.8q0 0.2 0.3 0.2 0 0.3 0 0.3c1.9 1.9 2.6 4.5 2.6 7.3 0 3.1-1 5.7-2.6 7.6q-0.3 0.2-0.3 0.2-2.8 2.8-7 2.8-0.3 0-0.3 0c-2.8 0-5.9-1.1-7.6-3.3v12.3h-4.4v-29.8zm13.7 10.3c0-3.6-3-6.5-6.7-6.5-3.6 0-6.6 2.9-6.6 6.5 0 3.6 3 6.5 6.6 6.5 3.7 0 6.7-2.9 6.7-6.5z"/>
			<path id="Layer" class="s1" d="m525.4 65.9v12.8h-4.5v-11.8c0-3.6-1.9-5.2-4.5-5.2-2.6 0-4.5 1.6-4.5 5.2v11.8h-4.5v-11.8c0-3.6-1.9-5.2-4.2-5.2-2.9 0-4.8 1.6-4.8 5.2v11.8h-4.4v-20.6h4l0.4 3.1c1.2-2.1 3.1-3.5 6.2-3.5 2.8 0 5 1.1 6.1 3.5 1.5-2.1 3.8-3.5 7.1-3.5 4.5 0 7.6 3 7.6 8.2z"/>
		</g>
		<g id="Layer">
			<path id="Layer" class="s1" d="m371.2 94.3h3.8v20.1h-4.1v-13.5l-10.8 13.5h-3.8v-20.1h4v13.5z"/>
			<path id="Layer" class="s1" d="m392.7 94.3h4v20.1h-4v-7.3h-9.9v7.3h-4v-20.1h4v8.5h9.9z"/>
			<path id="Layer" class="s1" d="m517.6 114.2v-16.6h-6.6v-3.5h17.3v3.5h-6.4v16.6z"/>
			<path id="Layer" fill-rule="evenodd" class="s1" d="m422.5 105.7c0.3 3 2.9 5.4 6.2 5.4 2.3 0 4-1.2 4.9-2.4h4.3c-1.2 3.4-4.7 6-9.2 6-6.2 0-10.7-4.1-10.7-10.4 0-6 4.3-10.5 10.2-10.5 5.7 0 9.7 3.6 10.2 10.2q0 0.7 0 1.7zm11.6-3.3c0-2.9-2.4-5-5.7-5-3.1 0-5.7 2.1-5.9 5z"/>
			<path id="Layer" fill-rule="evenodd" class="s1" d="m493.7 105.7c0.3 3 2.9 5.4 6.2 5.4 2.3 0 4-1.2 4.9-2.4h4.3c-1.2 3.4-4.7 6-9.2 6-6.2 0-10.7-4.1-10.7-10.4 0-6 4.3-10.5 10.4-10.5 5.5 0 9.7 3.6 10.2 10.2q0 0.7 0 1.7zm11.4-3.3c0-2.9-2.4-5-5.7-5-3.1 0-5.5 2.1-5.7 5z"/>
			<path id="Layer" class="s1" d="m481.9 94.3h4v20.1h-4v-7.3h-10.2v7.3h-3.8v-20.1h3.8v8.5h10.2z"/>
			<path id="Layer" class="s1" d="m406.2 114.2v-16.6h-6.4v-3.5h17.3v3.5h-6.4v16.6z"/>
			<path id="Layer" fill-rule="evenodd" class="s1" d="m446.2 94.1l0.4 2.8c1.9-2.1 4.8-3.3 7.6-3.3q0 0 0.2 0c2.9 0 5.3 1 6.9 2.8q0 0 0.2 0.3 0 0 0.3 0c1.4 1.9 2.3 4.5 2.3 7.3 0 2.9-0.9 5.5-2.3 7.3q-0.3 0-0.3 0.3-0.2 0-0.2 0.2c-1.6 1.7-4 2.6-6.9 2.6q-0.2 0-0.2 0c-2.8 0-5.7-1.2-7.6-3.3v12.1h-4.2v-29.1zm13.5 9.9c0-3.5-2.9-6.4-6.5-6.4-3.6 0-6.5 2.9-6.5 6.4 0 3.5 2.9 6.4 6.5 6.4 3.6 0 6.5-2.9 6.5-6.4z"/>
			<g id="Layer">
				<path id="Layer" class="s1" d="m374.7 130.3v20.1h-4.5v-16.6h-9.4v16.6h-4.5v-20.1z"/>
				<path id="Layer" fill-rule="evenodd" class="s1" d="m484.5 136.4c4.7 0 7.8 2.6 7.8 7.1 0 4.3-3.3 6.9-7.8 6.9h-8.3v-20.1h3.8v6.1zm-0.5 10.2c2.6 0 4.5-1.2 4.5-3.1 0-2.1-1.9-3.3-4.5-3.3h-3.8v6.4z"/>
				<path id="Layer" fill-rule="evenodd" class="s1" d="m396 130.3h4v20.1h-4.5v-3.1c-1.6 2.1-4.7 3.3-7.3 3.3q-0.2 0-0.2 0c-2.9 0-5.2-0.9-6.9-2.6q-0.2-0.2-0.2-0.2 0-0.3-0.3-0.3c-1.6-1.9-2.3-4.2-2.3-7.1v-0.2c0-2.8 0.7-5.2 2.3-7.1q0.3-0.2 0.3-0.2 0 0 0.2-0.3c1.7-1.6 4-2.8 6.9-2.8q0 0 0.2 0c2.6 0 5.7 1.4 7.3 3.5zm-0.4 10.1c0-3.6-2.9-6.5-6.5-6.5-3.6 0-6.5 2.9-6.5 6.5 0 3.6 2.9 6.5 6.5 6.5 3.6 0 6.5-2.9 6.5-6.5z"/>
				<path id="Layer" fill-rule="evenodd" class="s1" d="m408.6 130l0.4 3.1c1.7-2.4 4.8-3.5 7.4-3.5q0.2 0 0.2 0c2.8 0 5.2 1.1 6.9 2.8q0.2 0 0.2 0.2 0.2 0 0.2 0.3c1.7 1.6 2.6 4.2 2.6 7.1v0.2c0 2.8-0.9 5.2-2.6 7.1q0 0.2-0.2 0.2 0 0-0.2 0.3c-1.7 1.6-4.1 2.8-6.9 2.8q0 0-0.2 0c-2.6 0-5.7-1.4-7.4-3.5v12h-4.5v-29.1zm13.5 10.1c0-3.6-2.9-6.5-6.5-6.5-3.6 0-6.5 2.9-6.5 6.5 0 3.6 2.9 6.5 6.5 6.5 3.6 0 6.5-2.9 6.5-6.5z"/>
				<path id="Layer" class="s1" d="m453 146.6c1.7 0 3.3-1 3.3-4.3v-12h15.9v20.3h-4.5v-16.3h-7.1v8.3c0 5.7-3.3 8.3-7.6 8z"/>
				<path id="Layer" fill-rule="evenodd" class="s1" d="m439.9 150.6c-6 0-10.8-4.6-10.8-10.4 0-5.7 4.8-10.4 10.8-10.4 6 0 10.8 4.7 10.8 10.4 0 5.8-4.8 10.4-10.8 10.4zm6.3-10.4c0-3.5-2.8-6.4-6.3-6.4-3.5 0-6.3 2.9-6.3 6.4 0 3.5 2.8 6.4 6.3 6.4 3.5 0 6.3-2.9 6.3-6.4z"/>
			</g>
		</g>
	</g>
	<g id="Layer">
		<g id="Layer">
			<path id="Layer" fill-rule="evenodd" class="s2" d="m20.6 172.1c0 6-4.3 10-10.2 10-5.7 0-10.4-3.6-10.4-10.9v-3.6c0-7 3.3-12 9.7-13.2l9.2-1.2v3.8l-8.5 0.9c-3.8 0.8-5.9 3.1-6.1 8.3 1.4-2.8 4.2-3.8 6.8-3.8 5.5 0 9.5 4.1 9.5 9.7zm-4.3 0.2c0-3.4-2.7-6.1-6-6.1-3.3 0-6 2.7-6 6.1 0 3.3 2.7 6 6 6 3.3 0 6-2.7 6-6z"/>
			<path id="Layer" fill-rule="evenodd" class="s2" d="m27.4 173.3c0.3 3.1 2.9 5.2 6.2 5.2 2.1 0 3.8-0.9 4.7-2.3h4.3c-1.2 3.3-4.8 5.9-9 5.9-6.2 0-10.4-4-10.4-10.2 0-5.9 4-10.2 9.9-10.2 5.5 0 9.7 3.3 10.2 10q0 0.7 0 1.6zm11.3-3.3c-0.2-2.8-2.6-4.7-5.6-4.7-3.1 0-5.5 1.9-5.7 4.7z"/>
			<path id="Layer" class="s2" d="m44.7 178.1c1.4-0.3 3.1-1 3.1-4.1v-12h15.4v19.8h-4.3v-15.8h-6.9v8c0 5.5-3.3 7.8-7.3 7.8z"/>
			<path id="Layer" class="s2" d="m75 171.2l9.4-9.2h-4.9l-5.2 5.2-3.1 2.8v-8h-4-0.3v19.8h0.3 4v-9.2l3.1 3.1 5.2 6.1h4.9z"/>
			<path id="Layer" fill-rule="evenodd" class="s2" d="m105.5 162v19.8h-4.5v-3c-1.7 2.1-4.5 3.3-7.1 3.3q-0.2 0-0.2 0c-2.9 0-5.2-1-6.9-2.6q0-0.3-0.2-0.3 0-0.2 0-0.2c-1.7-1.7-2.6-4.3-2.6-7.1 0-2.8 0.9-5.2 2.6-7.1q0 0 0-0.2 0.2 0 0.2-0.3c1.7-1.6 4-2.6 6.9-2.6q0 0 0.2 0c2.6 0 5.4 1.2 7.1 3.3l0.7-3zm-4.5 9.9c0-3.5-2.8-6.4-6.4-6.4-3.5 0-6.4 2.9-6.4 6.4 0 3.5 2.9 6.4 6.4 6.4 3.6 0 6.4-2.9 6.4-6.4z"/>
			<path id="Layer" fill-rule="evenodd" class="s2" d="m113.1 162l0.4 3c1.7-2.1 4.8-3.3 7.4-3.3q0 0 0.2 0c2.9 0 5 1 6.6 2.6q0.3 0.3 0.3 0.3 0.2 0.2 0.2 0.2c1.7 1.9 2.4 4.3 2.4 7.1 0 2.8-0.7 5.4-2.4 7.1q0 0-0.2 0.2 0 0-0.3 0.3c-1.6 1.6-3.7 2.6-6.6 2.6q-0.2 0-0.2 0c-2.6 0-5.7-1.2-7.4-3.3v11.8h-4.2v-28.6zm13.2 9.9c0-3.5-2.8-6.4-6.4-6.4-3.5 0-6.3 2.9-6.3 6.4 0 3.5 2.8 6.4 6.3 6.4 3.6 0 6.4-2.9 6.4-6.4z"/>
			<path id="Layer" class="s2" d="m163.2 169.5v12.3h-4.2v-11.3c0-3.6-1.9-5-4.3-5-2.6 0-4.5 1.7-4.5 5v11.3h-4.3v-11.3c0-3.6-1.8-5-4.2-5-2.6 0-4.5 1.7-4.5 5v11.3h-4.3v-19.8h3.8l0.5 2.8c1.2-1.9 3.1-3.1 5.9-3.1 2.6 0 4.7 1 5.9 3.1 1.4-1.9 3.6-3.1 6.6-3.1 4.5 0 7.6 2.9 7.6 7.8z"/>
		</g>
		<g id="Layer">
			<path id="Layer" class="s3" d="m75 111.6l-20.8 20.3c-1.5 1.4-1.5 3.1-0.7 4.3 0.4 1.2 1.6 2.4 3.5 2.4l36.2 0.2c2.8 0 5.2-2.4 5.2-5q0-0.2 0-0.5c0-8-3.1-15.8-8.7-21.5-4.1-4-10.7-4.2-14.7-0.2z"/>
			<path id="Layer" class="s3" d="m51.1 96.2l-28.9-0.2c-1.9 0-3 1.2-3.5 2.3-0.5 1.2-0.7 3.1 0.7 4.3l25.5 25.8c2.2 2.1 5.2 2.1 7.4 0.2q0.2-0.2 0.2-0.5c5.7-5.4 9-13.2 9-21.2 0.2-5.7-4.5-10.5-10.4-10.7z"/>
			<path id="Layer" class="s3" d="m23.2 92.2q0.2 0 0.5 0c8 0 15.8-3.1 21.5-8.8 4-4 4.2-10.6 0.2-14.9l-20.3-20.5c-1.4-1.5-3.1-1.5-4.3-1-1.2 0.5-2.3 1.9-2.3 3.8l-0.3 36.2c0 2.8 2.4 5.2 5 5.2z"/>
			<path id="Layer" class="s3" d="m28.9 46.3c5.4 5.7 13.2 9 21.2 9 5.7 0.2 10.5-4.5 10.7-10.4l0.2-28.9c0-1.9-1.2-3.1-2.3-3.5-1.2-0.5-3.1-0.7-4.3 0.7l-25.8 25.5c-2.1 2.2-2.1 5.2-0.2 7.4q0.2 0.2 0.5 0.2z"/>
			<path id="Layer" class="s3" d="m88.2 39l20.8-20.1c1.5-1.5 1.2-3.1 0.8-4.3-0.5-1.2-1.7-2.4-3.6-2.6h-36.2c-2.8 0-5.2 2.4-5.2 5q0 0.2 0 0.4c0 8.1 3.1 15.9 8.8 21.6 4 4 10.6 4.2 14.6 0z"/>
			<path id="Layer" class="s3" d="m112.1 54.6l28.9 0.2c1.9 0 3.1-1.2 3.5-2.4 0.5-1.1 0.7-3-0.7-4.4l-25.5-25.6c-2.2-2.1-5.2-2.1-7.4-0.2q-0.2 0.2-0.2 0.4c-5.7 5.5-9 13.3-9 21.3-0.2 5.7 4.5 10.4 10.4 10.7z"/>
			<path id="Layer" class="s3" d="m140 58.6q-0.2 0-0.4 0c-8.1 0-15.9 3.1-21.6 8.8-4 4-4.2 10.6-0.2 14.6l20.3 20.8c1.5 1.5 3.1 1.2 4.3 0.7 1.2-0.4 2.4-1.6 2.4-3.5l0.2-36.2c0-2.8-2.4-5.2-5-5.2z"/>
			<path id="Layer" class="s3" d="m134.4 104.5c-5.5-5.7-13.3-9-21.3-9-5.7-0.2-10.4 4.5-10.7 10.4l-0.2 28.9c0 1.9 1.2 3 2.4 3.5 1.1 0.5 3 0.5 4.2-0.7l25.8-25.8c2.1-1.9 2.1-5.2 0.2-7.1q-0.2-0.2-0.4-0.2z"/>
		</g>
	</g>
</svg>