<svg version="1.2" xmlns="http://www.w3.org/2000/svg" viewBox="0 0 644 200" width="644" height="200">
	<title>Новый проект</title>
	<style>
		.s0 { fill: #ff5f00 } 
		.s1 { fill: #eb001b } 
		.s2 { fill: #f79e1b } 
		.s3 { fill: #000000 } 
	</style>
	<path id="Layer" class="s0" d="m112.7 24.4h86.2v154.5h-86.2z"/>
	<path id="Layer" class="s1" d="m131.6 141.3c6.5 13.4 16 25.2 27.5 34.3-14.4 11.4-31.7 18.6-50.3 20.6-18.3 1.9-36.9-1.3-53.3-9.5-16.6-8.2-30.7-20.6-40.5-36.2-9.8-15.7-15-33.7-15-52.3 0-18.3 5.2-36.2 15-51.9 9.8-15.7 23.9-28.4 40.5-36.3 16.4-8.1 35-11.4 53.3-9.4 18.6 1.9 35.9 9.1 50.3 20.5-11.5 9.2-21 20.9-27.5 34.3-6.5 13.4-10.1 28.1-10.1 42.8 0 15 3.6 29.7 10.1 43.1z"/>
	<path id="Layer" class="s2" d="m315.2 101.5c0 18.6-5.3 36.5-15.1 52.2-9.8 15.7-23.8 28.1-40.5 36.3-16.6 8.1-35.2 11.4-53.5 9.4-18.3-1.9-35.6-9.1-50.3-20.5 11.7-9.2 21.2-20.9 27.7-34.3 6.6-13.4 9.8-28.1 9.8-43.1 0-14.7-3.2-29.4-9.8-42.8-6.5-13.4-16-25.2-27.7-34.3 14.7-11.4 32-18.6 50.3-20.6 18.3-1.9 36.9 1.3 53.5 9.5 16.7 7.8 30.7 20.6 40.5 36.2 9.8 15.7 15.1 33.7 15.1 52z"/>
	<path id="Layer" fill-rule="evenodd" class="s3" d="m365.4 149.2h4.2v48.9h-4.2zm35.3 0q5.5 0 11.1 1.7 4.5 1.6 8.1 4.9c2.3 2.3 4.3 4.9 5.2 7.8 2.7 6.5 2.7 13.7 0 20.3-0.9 2.9-2.9 5.5-5.2 7.8-2.3 2.3-5.2 3.9-8.1 4.9q-5.6 2-11.1 1.6h-18v-49zm-13.4 4.3v40.8h13.4q4.9 0 9.5-1.6 3.9-1.3 6.8-3.9 3-3 4.3-6.6c1.9-5.5 1.9-11.4 0-17q-1.3-3.5-4.3-6.2-2.9-2.9-6.8-4.2-4.6-1.6-9.5-1.3zm89.5-4.6q3.2 0 6.2 0.7 2.9 0.6 5.5 1.9 2.3 1.3 4.6 3.3 2 1.6 3.6 3.9l-3.6 2.6q-1.3-1.9-2.9-3.6-2-1.6-4-2.6-1.9-1-4.5-1.6-2.3-0.7-4.9-0.7-4.3 0-8.2 1.7-3.6 1.3-6.5 4.2-2.6 3-4.3 6.5c-1.9 5.6-1.9 11.8 0 17q1.7 3.9 4.3 6.9 2.9 2.6 6.5 4.2 3.9 1.7 8.2 1.3 2.6 0 4.9-0.3 2.3-0.6 4.5-1.6 2-1.3 4-2.6 1.6-1.7 2.9-3.6l3.3 2.6q-1.3 2.3-3.6 3.9-2 2-4.6 3.3-2.6 1.3-5.2 1.9c-5.6 1.3-11.1 0.7-16-1.3-3-1-5.6-2.9-7.9-4.9q-3.6-3.6-5.5-8.1c-2.3-6.6-2.3-13.8 0-20.3q1.9-4.2 5.5-7.8c2.3-2.3 4.9-3.9 7.9-5.3 3.2-1.3 6.5-1.9 9.8-1.6zm33 22.2q0.9-1.6 2.2-2.9 1.4-1 3-2 1.3-0.6 2.9-1 1.7-0.3 3.6-0.3 2.6 0 5.6 1 2.3 0.7 4.2 2.6 2 1.6 3 4.3 0.9 2.6 0.9 5.2v20.2h-3.9v-18.9q0-2.3-0.6-4.3-0.7-1.9-2.3-3.5-1.3-1.4-3.3-2-2.3-1-4.6-1-1.9 0-4.2 1-2 0.6-3.3 2.3-1.6 1.3-2.6 3.2-0.6 2.3-0.6 4.6v18.6h-4v-50.3h4zm49-6.2q3.2 0 6.2 1.3 2.6 1 4.9 3.3 1.9 2.3 3.2 5.6 1 3.2 1 6.5 0 0.6 0 1 0 0.3 0 0.6h-27.4q0 3 1.3 5.2 1 2.3 2.6 4 1.9 1.3 3.9 2.3 2.3 0.6 4.9 0.6 3.3 0 6.2-1.3 2.6-1 4.9-3.3l2 2.6q-1.3 1.7-3.3 2.7-1.3 1.3-3.3 1.9-1.6 0.3-3.2 0.7-2 0.3-3.6 0.3-3.3 0-6.6-1.3-2.9-1.3-5.2-3.6-2.3-2.3-3.6-5.2-1.3-3.3-1-6.9-0.3-3.6 1-6.8 1.3-3 3.6-5.3 2.3-2.6 5.2-3.6 3-1.3 6.3-1.3zm0 3.6q-2.3 0-4.6 0.7-2 1-3.6 2.6-1.6 1.3-2.6 3.6-1 1.9-1.3 4.6h23.5q-0.3-2.7-1-4.6-1-2.3-2.6-3.9-1.6-1.3-3.6-2.3-2-0.7-4.2-0.7zm38.2-3.6q3.6 0 6.8 1.3 3.3 1.3 5.6 4l-2.6 2.6q-2-2-4.6-3-2.3-1.3-5.2-1.3-2.6 0-4.9 1-2.3 1-4 2.9-1.9 1.7-2.9 4.3c-1.3 3.3-1.3 7.2 0 10.4q1 2.3 2.6 4.3 2 1.6 4.3 2.6 2.3 1.3 4.9 1 2.9 0.3 5.5-1 2.3-1 4.3-2.9l2.6 2.6q-2.3 2.6-5.6 3.9c-4.2 1.6-9.1 1.6-13.4 0q-3.2-1.3-5.5-3.6-2.3-2.3-3.3-5.2-2.3-6.9 0-13.7 1-3 3.3-5.3 2.3-2.3 5.5-3.6 3.3-1.3 6.6-1.3zm24.1 14.4h5.6l13.7-14h4.9l-15.7 15.6 16 17.3h-4.9l-14-15.3h-5.6v15.3h-3.9v-50.3h3.9z"/>
	<path id="Layer" class="s0" d="m403.6 9.4h35.9v64.6h-35.9z"/>
	<path id="Layer" class="s1" d="m410.1 59.7c2.6 5.5 6.6 10.4 11.5 14.3-6.2 4.9-13.4 7.9-20.9 8.5-7.9 1-15.4-0.3-22.3-3.9-7.1-3.3-12.7-8.5-16.9-15-4-6.5-6.2-14.1-6.2-21.9 0-7.5 2.2-15.3 6.2-21.9 4.2-6.5 9.8-11.7 16.9-15 6.9-3.3 14.4-4.6 22.3-3.9 7.5 1 14.7 3.9 20.9 8.5-4.9 3.9-8.9 8.8-11.5 14.3-2.9 5.6-4.2 11.8-4.2 18 0 6.2 1.3 12.4 4.2 18z"/>
	<path id="Layer" class="s2" d="m487.9 41.7c0 7.8-2.3 15.4-6.3 21.9-4.2 6.5-10.1 11.7-16.9 15-6.9 3.6-14.7 4.9-22.2 3.9-7.6-0.6-15.1-3.6-20.9-8.5 4.9-3.9 8.8-8.8 11.4-14.3 2.6-5.6 4.2-11.8 4.2-18 0-6.2-1.6-12.4-4.2-18-2.6-5.5-6.5-10.4-11.4-14.3 5.8-4.6 13.3-7.5 20.9-8.5 7.5-0.7 15.3 0.6 22.2 3.9 6.8 3.3 12.7 8.5 16.9 15 4 6.6 6.3 14.4 6.3 21.9z"/>
	<path id="Layer" class="s2" d="m483.6 67.2v-1.3h-0.6v-0.4h1.3v0.4h-0.4v1.3zm2.6 0v-1.3l-0.6 1.3-0.7-1v1h-0.3v-1.7h0.7l0.3 1.4 0.3-1.4h0.7v1.7z"/>
</svg>