<svg version="1.2" xmlns="http://www.w3.org/2000/svg" viewBox="0 0 671 200" width="671" height="200">
	<title>Новый проект</title>
	<style>
		.s0 { fill: #1434cb } 
		.s1 { fill: #fffffe } 
	</style>
	<path id="Layer" class="s0" d="m153.2 36.6l-53 126.6h-34.4l-26-100.9c-0.3-2.4-1-4.7-2.3-6.8-1.4-2-3.4-3.3-5.4-4.4-10.2-5-21-8.4-32.1-10.8l0.7-3.7h55.7c3.7 0 7.1 1.4 9.8 3.7 2.7 2.4 4.7 5.8 5 9.2l13.9 73.2 34.1-86.1z"/>
	<path id="Layer" class="s0" d="m200.2 36.6l-27 126.3h-32.8l27-126.3z"/>
	<path id="Layer" class="s0" d="m243 71.7c-0.3 15.2 45.6 16.9 45.6 50.3 0 26-22.3 43.2-56.7 43.2-12.5 0-25-2.3-36.5-6.7l6.1-27.7c10.1 5.4 21.6 8.1 33.4 7.8 9.5 0 19.6-3.7 19.6-12.2 0.3-5.7-4.7-9.8-16.9-15.8-12.5-6.1-28.7-16.2-28.7-34.5 0.4-24.6 23-41.8 55.4-41.8 10.5 0 20.6 2 30.4 5.7l-5.8 26.7c-10.1-4.8-21.2-6.8-32-5.8-9.8 1.4-13.9 6.1-13.9 10.8z"/>
	<path id="Layer" fill-rule="evenodd" class="s0" d="m377.7 36.6l26.7 126.6h-30.1l-4-18.9h-41.9l-6.7 18.9h-34.5l48.6-117.5c1.4-2.7 3.1-5 5.8-6.7 2.4-1.4 5.4-2.4 8.4-2.4zm-13.1 81.7l-9.8-47.6-17.2 47.6z"/>
	<path id="Layer" fill-rule="evenodd" class="s0" d="m441.7 84.2h231.5v115.8h-231.5z"/>
	<path id="Layer" fill-rule="evenodd" class="s0" d="m552.4 0.9l-11.2 51.9h-13.5l11.2-51.9zm69.8 44.2h-17.2l-2.7 7.7h-14.1l20.2-48.2c1-2.1 3-3.7 5.7-3.7h11.5l10.8 51.9h-12.5zm-2-10.4l-4.4-19.6-7.1 19.6zm-54.3 19.2c-6.1-0.3-11.8-1.3-15.2-3l2.7-11.2c3 1.4 6.8 3.4 13.5 3.1 4.1 0 8.1-1.4 8.1-5.1 0-2-1.7-3.7-6.7-6.4-5.4-2.4-12.2-6.8-11.9-14.2 0-10.1 9.5-17.2 22.7-17.2 5 0 9.4 1.4 12.4 2.4l-2.3 11.1c-6.1-2.7-11.2-2.7-13.2-2.4-4 0.4-5.7 2.4-5.7 4.4 0 6.1 18.9 6.8 18.9 20.6 0 10.8-9.5 17.9-23.3 17.9zm-32.4-53l-22 52h-14.1l-10.5-41.5c-0.7-2.4-1.3-3.4-3.4-4.4-3.3-2-8.4-3.4-13.1-4.4l0.3-1.7h22.6c3.1 0 5.8 2 6.4 5.4l5.8 30.1 13.8-35.5z"/>
	<path id="Layer" fill-rule="evenodd" class="s1" d="m495.7 148.4c1.3 1 3.7 1.6 6 1.6 3.1 0 5.1-1.3 5.1-3.7 0-1.7-1.3-3-4.7-4-4.4-1.7-7.1-4.1-7.1-7.8 0-4.4 3.4-7.4 9.1-7.4 3 0 5.1 0.7 6.4 1l-1.3 4.1c-0.7-0.4-2.7-1.4-5.1-1.4-3 0-4.4 1.7-4.4 3.4 0 2 1.7 2.7 5.1 4 4.4 2.1 6.7 4.1 6.7 7.8 0 4.4-3 8.1-9.8 8.1-3 0-5.7-1-7.4-1.7z"/>
	<path id="Layer" fill-rule="evenodd" class="s1" d="m530.1 141.9h-9.8v7.8h11.1v4.1h-15.8v-26.4h15.2v3.7h-10.5v7.1h9.8z"/>
	<path id="Layer" fill-rule="evenodd" class="s1" d="m554.1 152.7c-1.4 0.7-3.7 1.4-7.1 1.4-8.1 0-13.2-5.4-13.2-13.2 0-8.7 6.1-13.8 13.9-13.8 3.3 0 5.4 0.7 6.4 1l-1 3.7c-1.1-0.3-3.1-1-5.1-1-5.4 0-9.1 3.4-9.1 9.8 0 5.7 3.4 9.4 9.1 9.4 1.7 0 4-0.3 5.1-1z"/>
	<path id="Layer" fill-rule="evenodd" class="s1" d="m562.5 127.4v15.2c0 5.1 2 7.4 5.4 7.4 3.4 0 5.4-2.3 5.4-7.4v-15.2h4.7v14.9c0 8.1-4 11.8-10.4 11.8-6.1 0-10.2-3.4-10.2-11.8v-14.9z"/>
	<path id="Layer" fill-rule="evenodd" class="s1" d="m583.1 127.8c2-0.4 4.7-0.7 7.4-0.7 3.7 0 6.1 0.7 8.1 2 1.4 1.4 2 3.1 2 5.4 0 3.4-2 5.8-4.7 6.8 2 0.6 3.1 2.3 3.7 5 1 3.4 1.7 6.4 2.1 7.5h-4.8c-0.6-1.1-1-3.1-2-6.5-0.7-3.3-1.7-4.3-4.4-4.3h-2.7v10.8h-4.7zm4.7 11.4h3.1c3 0 5-1.7 5-4.4 0-2.7-2-4-5-4q-2.4 0-3.1 0z"/>
	<path id="Layer" fill-rule="evenodd" class="s1" d="m619.5 141.9h-9.7v7.8h11.1v4.1h-15.9v-26.4h15.2v3.7h-10.4v7.1h9.7z"/>
</svg>