<svg>
    <symbol id="email" width="40" height="40" viewBox="0 0 40 40" fill="none" xmlns="http://www.w3.org/2000/svg">
        <g><path d="M33 19.6106C32.9997 16.6487 32.0065 13.7719 30.1782 11.4368C28.3499 9.10182 25.7912 7.44248 22.9085 6.72233C20.0259 6.00218 16.9844 6.2625 14.2671 7.46195C11.5499 8.6614 9.31255 10.7312 7.91048 13.3427C6.5084 15.9543 6.02193 18.9578 6.52832 21.8763C7.03471 24.7949 8.50493 27.4612 10.7055 29.4518C12.9061 31.4424 15.7109 32.6433 18.6745 32.8637C21.6381 33.0841 24.5907 32.3114 27.0633 30.6683L28.9133 33.4323C26.177 35.2557 22.9583 36.2265 19.6667 36.2212C10.4617 36.2212 3 28.7846 3 19.6106C3 10.4366 10.4617 3 19.6667 3C28.8717 3 36.3333 10.4366 36.3333 19.6106V22.1022C36.3335 23.3459 35.9335 24.5569 35.192 25.5573C34.4506 26.5577 33.4067 27.2947 32.2139 27.6601C31.0211 28.0256 29.7421 28.0001 28.5648 27.5875C27.3876 27.1749 26.3741 26.3969 25.6733 25.3678C24.561 26.5206 23.1383 27.3288 21.5762 27.6952C20.0141 28.0616 18.3791 27.9708 16.8676 27.4335C15.3561 26.8962 14.0324 25.9355 13.0555 24.6666C12.0786 23.3977 11.4901 21.8747 11.3607 20.2805C11.2313 18.6864 11.5665 17.0889 12.326 15.68C13.0856 14.2711 14.2371 13.1107 15.6423 12.3383C17.0475 11.5659 18.6466 11.2143 20.2474 11.3257C21.8483 11.4371 23.3828 12.0068 24.6667 12.9664H28V22.1022C28 22.763 28.2634 23.3968 28.7322 23.864C29.2011 24.3313 29.837 24.5938 30.5 24.5938C31.163 24.5938 31.7989 24.3313 32.2678 23.864C32.7366 23.3968 33 22.763 33 22.1022V19.6106ZM19.6667 14.6274C18.3406 14.6274 17.0688 15.1524 16.1311 16.087C15.1934 17.0215 14.6667 18.289 14.6667 19.6106C14.6667 20.9322 15.1934 22.1997 16.1311 23.1342C17.0688 24.0688 18.3406 24.5938 19.6667 24.5938C20.9927 24.5938 22.2645 24.0688 23.2022 23.1342C24.1399 22.1997 24.6667 20.9322 24.6667 19.6106C24.6667 18.289 24.1399 17.0215 23.2022 16.087C22.2645 15.1524 20.9927 14.6274 19.6667 14.6274Z" fill="#1D1D1F"/></g>
    </symbol>
    <symbol id="telegram" width="40" height="40" viewBox="0 0 40 40" fill="none" xmlns="http://www.w3.org/2000/svg">
        <g clip-path="url(#clip0_369_115)">
            <path d="M20.0002 33.3335C23.5364 33.3335 26.9278 31.9287 29.4283 29.4283C31.9287 26.9278 33.3335 23.5364 33.3335 20.0002C33.3335 16.4639 31.9287 13.0726 29.4283 10.5721C26.9278 8.07159 23.5364 6.66683 20.0002 6.66683C16.4639 6.66683 13.0726 8.07159 10.5721 10.5721C8.07159 13.0726 6.66683 16.4639 6.66683 20.0002C6.66683 23.5364 8.07159 26.9278 10.5721 29.4283C13.0726 31.9287 16.4639 33.3335 20.0002 33.3335ZM20.0002 36.6668C10.7952 36.6668 3.3335 29.2052 3.3335 20.0002C3.3335 10.7952 10.7952 3.3335 20.0002 3.3335C29.2052 3.3335 36.6668 10.7952 36.6668 20.0002C36.6668 29.2052 29.2052 36.6668 20.0002 36.6668ZM14.8168 21.9502L10.6535 20.6518C9.7535 20.3768 9.7485 19.7568 10.8552 19.3118L27.0768 13.0452C28.0185 12.6618 28.5518 13.1468 28.2468 14.3618L25.4852 27.3952C25.2918 28.3235 24.7335 28.5452 23.9585 28.1168L19.7068 24.9702L17.7252 26.8835C17.5218 27.0802 17.3568 27.2485 17.0435 27.2902C16.7318 27.3335 16.4752 27.2402 16.2868 26.7235L14.8368 21.9385L14.8168 21.9502Z" fill="#1D1D1F"/>
        </g>
        <defs>
            <clipPath id="clip0_369_115">
                <rect width="40" height="40" fill="white"/>
            </clipPath>
        </defs>
    </symbol>
    <symbol id="twitter" width="40" height="40" viewBox="0 0 40 40" fill="none" xmlns="http://www.w3.org/2000/svg">
        <g clip-path="url(#clip0_369_118)">
            <path d="M25.5002 9.25003C24.2335 9.24982 23.0173 9.7469 22.1134 10.6343C21.2094 11.5217 20.69 12.7285 20.6669 13.995L20.6202 16.62C20.6175 16.761 20.585 16.8997 20.5248 17.0272C20.4647 17.1547 20.3783 17.2681 20.2713 17.3598C20.1642 17.4516 20.039 17.5197 19.9039 17.5596C19.7687 17.5996 19.6266 17.6105 19.4869 17.5917L16.8852 17.2384C13.4619 16.7717 10.1819 15.195 7.0352 12.5734C6.03853 18.09 7.9852 21.9117 12.6735 24.86L15.5852 26.69C15.7235 26.777 15.8385 26.8965 15.9199 27.0381C16.0014 27.1798 16.0469 27.3392 16.0525 27.5025C16.0581 27.6658 16.0236 27.828 15.952 27.9749C15.8804 28.1217 15.7739 28.2488 15.6419 28.345L12.9885 30.2834C14.5669 30.3817 16.0652 30.3117 17.3085 30.065C25.1719 28.495 30.4002 22.5784 30.4002 12.8184C30.4002 12.0217 28.7135 9.25003 25.5002 9.25003ZM17.3335 13.9334C17.3626 12.3268 17.865 10.7645 18.7778 9.44206C19.6906 8.11965 20.9732 7.09589 22.4651 6.49897C23.9569 5.90205 25.5917 5.75849 27.1648 6.08627C28.7378 6.41405 30.1792 7.1986 31.3085 8.34169C32.4935 8.33336 33.5019 8.63336 35.7569 7.2667C35.1985 10 34.9235 11.1867 33.7335 12.8184C33.7335 25.555 25.9052 31.7484 17.9619 33.3334C12.5152 34.42 4.5952 32.635 2.3252 30.265C3.48186 30.175 8.18186 29.67 10.8985 27.6817C8.6002 26.1667 -0.548138 20.7834 5.46353 6.31003C8.2852 9.60503 11.1469 11.8484 14.0469 13.0384C15.9769 13.83 16.4502 13.8134 17.3352 13.935L17.3335 13.9334Z" fill="#1D1D1F"/>
        </g>
        <defs>
            <clipPath id="clip0_369_118">
                <rect width="40" height="40" fill="white"/>
            </clipPath>
        </defs>
    </symbol>
    <symbol id="github" width="40" height="40" viewBox="0 0 24 24" fill="none" xmlns="http://www.w3.org/2000/svg">
        <path d="M5.88401 18.6531C5.58404 18.4523 5.32587 18.1972 5.0239 17.8366C4.91473 17.7062 4.47283 17.1521 4.55811 17.258C4.09533 16.6831 3.80296 16.4168 3.50156 16.3087C2.9817 16.1223 2.7114 15.5497 2.89784 15.0298C3.08428 14.51 3.65685 14.2397 4.17672 14.4261C4.92936 14.696 5.43847 15.1609 6.12425 16.0141C6.03025 15.8972 6.46364 16.4408 6.55731 16.5526C6.74784 16.7802 6.88732 16.918 6.99629 16.9909C7.20118 17.128 7.58451 17.1871 8.14709 17.1308C8.17065 16.7487 8.24136 16.378 8.34919 16.0355C5.38097 15.3101 3.70116 13.3949 3.70116 9.63947C3.70116 8.4006 4.0704 7.28368 4.75917 6.34756C4.5415 5.45368 4.57433 4.37259 5.06092 3.15611C5.1725 2.87715 5.40361 2.66314 5.69031 2.57328C5.77242 2.54949 5.81791 2.5389 5.89878 2.52648C6.70167 2.40319 7.83573 2.69681 9.31449 3.62311C10.181 3.41855 11.0885 3.31476 12.0012 3.31476C12.9129 3.31476 13.8196 3.41835 14.6854 3.62253C16.1619 2.68976 17.2986 2.39625 18.1072 2.52627C18.1919 2.53988 18.2645 2.55758 18.3249 2.57741C18.6059 2.66967 18.8316 2.88155 18.9414 3.15611C19.4279 4.37232 19.4608 5.45319 19.2433 6.34695C19.9342 7.28313 20.3012 8.39184 20.3012 9.63947C20.3012 13.3966 18.627 15.3046 15.6588 16.0318C15.7837 16.4467 15.8496 16.9103 15.8496 17.4118C15.8496 18.0763 15.8471 18.7108 15.8424 19.4223C15.8412 19.6124 15.8397 19.8156 15.8375 20.1279C16.2129 20.2107 16.5229 20.5074 16.6031 20.9086C16.7114 21.4502 16.3602 21.977 15.8186 22.0853C14.6794 22.3132 13.8353 21.5535 13.8353 20.5608C13.8353 20.4705 13.836 20.3414 13.8375 20.1142C13.8398 19.8012 13.8412 19.5987 13.8425 19.4092C13.8471 18.7017 13.8496 18.0714 13.8496 17.4118C13.8496 16.7145 13.6664 16.26 13.4237 16.0508C12.7627 15.481 13.0977 14.3971 13.965 14.2996C16.9314 13.9663 18.3012 12.8174 18.3012 9.63947C18.3012 8.68484 17.9893 7.89547 17.3881 7.23534C17.1301 6.95209 17.0567 6.54634 17.199 6.19062C17.3647 5.77639 17.4354 5.2336 17.2941 4.57678L17.2847 4.57944C16.7928 4.71861 16.1744 5.01956 15.4261 5.52826C15.182 5.69413 14.8772 5.74377 14.5932 5.66388C13.7729 5.43319 12.8913 5.31476 12.0012 5.31476C11.111 5.31476 10.2294 5.43319 9.40916 5.66388C9.12662 5.74335 8.82344 5.69468 8.57997 5.53077C7.8274 5.02414 7.2056 4.72355 6.71079 4.58352C6.56735 5.23672 6.63814 5.77758 6.80336 6.19062C6.94565 6.54634 6.87219 6.95209 6.61423 7.23534C6.01715 7.89096 5.70116 8.69352 5.70116 9.63947C5.70116 12.8114 7.07225 13.9681 10.023 14.2996C10.8883 14.3969 11.2246 15.4767 10.5675 16.048C10.3751 16.2153 10.1384 16.7799 10.1384 17.4118V20.5608C10.1384 21.5472 9.30356 22.2866 8.17878 22.0898C7.63476 21.9946 7.27093 21.4764 7.36613 20.9324C7.43827 20.5201 7.75331 20.2114 8.13841 20.1274V19.1379C7.22829 19.1991 6.47656 19.0496 5.88401 18.6531Z" fill="#1D1D1F"></path>
    </symbol>
</svg>
